# xmcd
# 
# Track frame offsets:
#     150
#     20412
#     42589
#     57477
#     76772
#     94475
#     116727
#     136330
#     158390
#     178730
#     198942
# 
# Disc length: 2922
# 
# Revision: 2
# Processed by: cddbd v1.5.2PL0 Copyright (c) Steve Scherf et al.
# Submitted via: fre:ac v1.0.31
# 
DISCID=8f0b680b
DTITLE=Marie Carmen - Les Grands Succes
DYEAR=0
DGENRE=
TTITLE0=L'aigle noir
TTITLE1=Faut pas que j'panique
TTITLE2=Dans la peau
TTITLE3=C'est pas perdu
TTITLE4=J'ai l'blues de vous
TTITLE5=Tu t'en vas
TTITLE6=Donne-toi
TTITLE7=T'oublier
TTITLE8=Ma façon
TTITLE9=Entre l'ombre et la lumière
TTITLE10=Piaf chanterait du rock
EXTD=
EXTT0=
EXTT1=
EXTT2=
EXTT3=
EXTT4=
EXTT5=
EXTT6=
EXTT7=
EXTT8=
EXTT9=
EXTT10=
PLAYORDER=
